<?xml version="1.0" standalone="no"?>
<!DOCTYPE svg PUBLIC "-//W3C//DTD SVG 20010904//EN"
 "http://www.w3.org/TR/2001/REC-SVG-20010904/DTD/svg10.dtd">
<svg version="1.0" xmlns="http://www.w3.org/2000/svg"
 width="225.000000pt" height="225.000000pt" viewBox="0 0 225.000000 225.000000"
 preserveAspectRatio="xMidYMid meet">

<g transform="translate(0.000000,225.000000) scale(0.100000,-0.100000)"
fill="#000000" stroke="none">
<path d="M1010 2243 c-477 -51 -879 -408 -980 -871 -83 -383 28 -767 301
-1041 441 -441 1157 -439 1594 4 434 440 431 1147 -6 1584 -238 238 -579 359
-909 324z m355 -122 c189 -46 357 -144 496 -288 131 -136 210 -276 261 -463
20 -74 23 -107 22 -250 -1 -135 -5 -179 -22 -242 -96 -352 -342 -616 -677
-727 -231 -76 -492 -66 -718 29 -231 97 -446 311 -544 543 -60 142 -77 231
-77 402 0 125 4 165 23 239 84 324 300 577 600 705 68 29 202 66 271 75 76 9
286 -4 365 -23z"/>
<path d="M930 2056 c0 -2 18 -15 40 -30 39 -25 40 -28 40 -81 0 -53 -1 -56
-40 -81 -22 -15 -40 -28 -40 -30 0 -2 95 -4 210 -4 l210 0 0 61 0 60 -44 -35
c-40 -34 -47 -36 -115 -36 l-71 0 0 60 0 59 45 27 c25 14 45 28 45 30 0 2 -63
4 -140 4 -77 0 -140 -2 -140 -4z"/>
<path d="M1565 1927 c7 -42 4 -49 -26 -86 -31 -37 -38 -41 -82 -41 l-49 0 129
-106 c70 -58 142 -112 160 -120 83 -36 163 3 163 78 0 51 -26 93 -87 144 -26
22 -86 70 -131 108 l-84 69 7 -46z m163 -161 c27 -31 30 -39 21 -64 -12 -34
-48 -57 -75 -48 -11 4 -34 20 -53 36 l-34 29 38 50 c43 56 51 56 103 -3z"/>
<path d="M670 1924 c-99 -26 -175 -97 -202 -186 -41 -137 157 -142 289 -6 81
83 93 167 27 194 -40 17 -44 17 -114 -2z m30 -91 c26 -33 21 -79 -11 -105 -47
-39 -119 -4 -119 58 0 71 86 103 130 47z"/>
<path d="M972 1745 c-30 -7 -92 -32 -140 -55 -123 -61 -214 -154 -275 -281
-53 -111 -67 -169 -67 -287 1 -207 89 -384 255 -510 161 -121 386 -158 580
-96 182 59 350 227 409 409 26 81 36 191 25 279 -33 260 -230 482 -482 541
-75 18 -232 18 -305 0z m299 -101 c184 -54 336 -211 380 -394 16 -67 16 -199
-1 -260 -50 -184 -206 -340 -390 -390 -61 -17 -193 -17 -260 -1 -137 33 -283
145 -347 266 -47 90 -63 157 -63 260 0 151 48 271 151 375 108 110 226 159
380 160 59 0 116 -6 150 -16z"/>
<path d="M1090 1559 c-7 -12 -9 -40 -5 -67 6 -46 5 -48 -27 -64 -18 -9 -43
-19 -55 -23 -38 -11 -60 -122 -51 -255 1 -14 0 -32 -3 -40 -5 -20 36 -16 57 5
25 25 29 18 29 -54 0 -57 4 -75 23 -100 21 -29 22 -35 10 -66 -10 -28 -10 -43
1 -78 24 -80 24 -87 6 -107 -18 -20 -17 -20 20 -20 37 0 37 1 31 33 -3 17 -2
46 3 62 8 26 9 21 10 -32 l1 -63 35 0 36 0 -21 22 c-24 26 -24 26 -5 71 17 42
19 90 5 118 -9 15 -5 29 15 62 19 34 25 57 25 105 0 61 10 78 28 46 5 -9 21
-16 36 -16 26 0 36 -21 16 -33 -28 -17 14 -29 66 -19 20 3 30 34 12 34 -5 0
-7 3 -5 8 2 4 -1 20 -8 35 l-11 28 -14 -26 c-16 -30 -26 -32 -40 -5 -8 15 -8
30 0 56 21 61 -20 232 -55 235 -21 2 -27 4 -57 19 -25 12 -27 18 -26 66 1 30
-4 59 -11 68 -19 23 -58 20 -71 -5z m-47 -318 c29 -49 16 -96 -28 -103 -18 -3
-20 3 -20 57 0 53 7 74 25 75 3 0 13 -13 23 -29z m211 23 c11 -4 13 -14 10
-34 -4 -15 -1 -36 4 -47 14 -25 -3 -54 -26 -46 -23 9 -41 34 -42 56 0 16 29
77 36 77 1 0 9 -3 18 -6z m-114 -274 c0 -5 -2 -10 -4 -10 -3 0 -8 5 -11 10 -3
6 -1 10 4 10 6 0 11 -4 11 -10z m0 -87 c-1 -24 -2 -26 -11 -10 -5 9 -7 22 -4
27 10 17 15 11 15 -17z"/>
<path d="M880 1109 c-22 -52 -20 -65 12 -67 16 -1 32 -3 36 -3 4 -1 16 -1 26
0 18 1 18 2 3 19 -10 10 -17 22 -17 26 0 4 -11 18 -23 32 l-24 26 -13 -33z"/>
<path d="M1901 1608 c-16 -29 -26 -54 -21 -56 5 -2 34 2 65 8 l55 11 -30 45
c-17 24 -33 44 -35 44 -2 0 -17 -24 -34 -52z"/>
<path d="M355 1480 c-21 -63 -40 -122 -43 -130 -3 -8 11 0 31 18 47 40 57 40
57 2 0 -84 -78 -132 -130 -80 -40 40 -22 115 46 190 l34 38 -46 16 -46 15 6
-24 c4 -17 -1 -36 -18 -62 -14 -21 -33 -67 -42 -102 -43 -168 41 -276 149
-191 38 30 86 135 93 205 4 39 14 68 27 82 l20 22 -27 11 c-15 5 -31 10 -35
10 -4 0 -14 21 -22 48 l-15 47 -39 -115z"/>
<path d="M1881 1464 c-25 -32 -27 -80 -6 -178 16 -74 12 -93 -10 -62 -27 36
-32 152 -10 222 6 20 5 20 -44 10 l-51 -10 17 -25 c11 -16 20 -55 23 -101 11
-141 68 -222 135 -192 39 18 43 72 19 236 -6 39 -4 48 6 44 22 -7 32 -66 28
-154 l-4 -80 43 10 c41 9 42 11 30 30 -8 12 -17 50 -21 86 -17 153 -97 237
-155 164z"/>
<path d="M1720 732 l-74 -68 16 -47 c17 -53 11 -57 -39 -26 l-34 21 -32 -26
c-17 -14 -59 -50 -92 -81 l-60 -56 47 5 c45 5 48 4 82 -36 39 -45 41 -55 26
-107 l-9 -34 22 20 c12 11 102 91 200 177 97 87 177 160 177 162 0 3 -20 2
-44 -1 -42 -7 -44 -6 -79 37 -32 39 -35 48 -30 86 3 23 4 42 1 42 -2 0 -38
-31 -78 -68z m83 -184 c-3 -21 -9 -38 -12 -38 -4 0 -15 26 -25 58 -10 31 -21
64 -24 72 -2 8 12 -1 31 -20 33 -31 36 -39 30 -72z m-132 -62 l74 -33 -43 -4
c-38 -4 -46 -1 -79 33 -20 21 -34 38 -31 38 3 0 39 -15 79 -34z"/>
<path d="M1934 759 c-17 -19 -17 -23 -3 -47 16 -30 61 -41 85 -21 17 14 19 60
2 77 -19 19 -63 14 -84 -9z m31 1 c-3 -5 -1 -10 6 -10 7 0 10 -2 7 -5 -3 -3
-13 -2 -22 1 -14 5 -15 9 -4 15 17 11 20 11 13 -1z m45 -5 c20 -24 6 -28 -15
-5 -10 11 -13 20 -8 20 6 0 16 -7 23 -15z m-28 -55 c7 0 6 6 -2 15 -13 16 -3
20 24 9 13 -5 14 -9 5 -20 -22 -27 -69 -10 -69 25 0 11 5 9 16 -7 8 -12 20
-22 26 -22z"/>
<path d="M412 660 c-66 -61 17 -204 154 -267 31 -14 60 -35 67 -49 l13 -25 23
32 c22 29 26 31 70 24 40 -6 44 -5 31 8 -22 21 -188 147 -193 147 -3 0 3 -20
11 -44 19 -53 14 -63 -25 -43 -68 36 -88 102 -42 139 50 42 135 -5 181 -101
l21 -44 33 39 33 39 -25 3 c-14 2 -44 25 -72 54 -86 93 -227 137 -280 88z"/>
<path d="M880 425 c0 -2 14 -12 32 -21 41 -21 138 -113 138 -130 0 -8 -19 -26
-42 -41 l-42 -28 72 -3 c40 -2 105 -2 145 0 l72 3 -47 28 c-27 15 -48 31 -48
35 0 13 113 119 150 141 l35 21 -105 0 -105 0 25 -20 25 -19 -27 -28 -27 -27
-25 23 -25 23 27 24 27 23 -127 1 c-71 0 -128 -2 -128 -5z"/>
</g>
</svg>
